<?xml version="1.0" standalone="no"?>
<!DOCTYPE svg PUBLIC "-//W3C//DTD SVG 20010904//EN"
 "http://www.w3.org/TR/2001/REC-SVG-20010904/DTD/svg10.dtd">
<svg version="1.0" xmlns="http://www.w3.org/2000/svg"
 width="720.000000pt" height="1520.000000pt" viewBox="0 0 720.000000 1520.000000"
 preserveAspectRatio="xMidYMid meet">
<metadata>
Created by potrace 1.16, written by Peter Selinger 2001-2019
</metadata>
<g transform="translate(0.000000,1520.000000) scale(0.100000,-0.100000)"
fill="#000000" stroke="none">
<path d="M2422 14463 c2 -13 -7 -20 -42 -27 -55 -11 -56 -12 -41 -30 10 -12 9
-14 -6 -12 -10 2 -28 -1 -41 -5 -15 -6 -21 -5 -17 1 13 22 -25 8 -43 -15 -20
-25 -40 -35 -26 -13 4 7 3 8 -4 4 -7 -4 -12 -18 -12 -31 0 -13 -4 -27 -10 -30
-5 -3 -10 -14 -9 -23 0 -12 3 -11 9 6 5 12 17 22 27 22 17 -1 17 -1 1 -14 -10
-7 -15 -16 -12 -19 4 -3 -5 -9 -20 -13 -14 -3 -26 -11 -26 -17 0 -6 -3 -7 -6
-4 -4 4 -1 13 5 21 10 11 9 19 -1 35 -16 26 -28 27 -35 1 -3 -11 -9 -17 -14
-14 -5 3 -14 2 -20 -2 -8 -4 -7 -9 2 -15 11 -7 11 -9 -2 -9 -24 0 -63 -37 -47
-43 9 -4 9 -6 -2 -6 -8 -1 -27 -14 -42 -29 -19 -20 -36 -28 -56 -26 -26 2 -28
-1 -24 -23 3 -18 7 -21 13 -11 6 9 9 5 9 -13 0 -15 -7 -29 -15 -33 -10 -3 -15
1 -15 12 0 9 -4 23 -9 31 -6 9 -9 2 -9 -25 0 -21 -5 -40 -11 -42 -8 -3 -8 -9
0 -24 6 -11 8 -22 5 -25 -3 -3 -8 2 -12 11 -3 9 -11 16 -16 16 -6 0 -8 -6 -5
-14 3 -8 -3 -24 -13 -36 -17 -20 -19 -20 -23 -3 -4 16 -6 15 -12 -4 -4 -13
-12 -23 -17 -23 -5 0 -7 -4 -4 -9 4 -5 1 -11 -6 -13 -6 -2 -11 -19 -11 -37 0
-31 -2 -32 -14 -15 -7 10 -13 14 -13 8 -1 -5 -7 2 -14 16 -14 25 -14 69 0 124
5 22 4 28 -7 24 -8 -3 -14 -11 -14 -19 -1 -8 -6 -13 -13 -12 -7 2 -12 -3 -13
-10 0 -6 -4 -3 -8 7 -4 11 -15 20 -24 22 -10 1 -15 -2 -12 -6 9 -14 -16 -58
-36 -63 -11 -3 -19 -11 -19 -17 0 -7 6 -10 14 -7 16 6 43 -19 32 -30 -3 -3
-17 -1 -30 7 -14 7 -32 10 -41 6 -9 -3 -13 -2 -10 3 8 14 -9 21 -25 10 -13 -8
-12 -12 4 -24 20 -15 31 -45 17 -45 -4 0 -8 -6 -8 -14 0 -14 15 -15 60 -2 45
13 42 0 -7 -27 -36 -20 -46 -22 -46 -11 0 8 -5 12 -10 9 -6 -4 -3 -15 7 -30
10 -12 21 -21 26 -18 4 2 8 -4 9 -14 2 -33 3 -38 11 -50 5 -7 13 -13 18 -13 6
0 7 6 3 13 -4 6 6 1 22 -13 16 -14 30 -28 32 -32 2 -5 7 -8 11 -8 5 0 30 -21
57 -48 47 -45 128 -116 204 -178 19 -16 46 -39 60 -52 14 -12 56 -44 95 -70
38 -26 72 -50 75 -53 3 -3 24 -18 48 -33 23 -14 42 -32 42 -40 0 -8 10 -17 23
-20 26 -7 82 -54 74 -63 -10 -9 -39 6 -32 17 3 6 0 7 -9 4 -10 -4 -28 6 -47
25 -17 17 -34 31 -38 31 -5 0 -21 12 -36 26 -16 15 -25 19 -22 10 4 -9 2 -16
-2 -16 -5 0 -16 -3 -24 -6 -9 -3 -18 2 -21 13 -7 22 -174 196 -226 235 -19 15
-57 47 -85 72 -27 25 -53 46 -57 46 -5 0 -8 6 -8 13 -1 16 -70 60 -70 44 0 -7
-6 -3 -12 8 -7 11 -24 30 -38 43 -31 28 -115 79 -107 65 3 -5 2 -15 -3 -23 -7
-11 -12 -7 -23 19 -10 24 -16 29 -20 17 -3 -8 -2 -18 3 -21 5 -3 5 -18 0 -36
-5 -18 -6 -39 -2 -48 9 -19 7 -104 -2 -120 -4 -6 4 -21 17 -33 24 -23 31 -66
13 -80 -12 -8 -18 -68 -10 -88 4 -8 8 -21 10 -28 1 -7 14 -24 29 -38 30 -28
25 -31 -10 -8 -15 10 -25 12 -25 5 0 -6 -7 -11 -16 -11 -8 0 -12 -5 -9 -10 4
-6 11 -8 16 -5 5 4 6 -2 2 -12 -11 -32 -14 -33 -30 -17 -15 14 -18 14 -35 -4
-22 -22 -17 -58 11 -89 10 -10 16 -24 13 -31 -7 -22 8 -63 20 -56 7 4 8 3 4
-5 -4 -6 -11 -9 -16 -6 -4 3 -7 -19 -6 -47 1 -29 -1 -66 -6 -82 -6 -22 -3 -34
8 -48 15 -16 15 -17 -5 -13 -41 8 -47 -2 -47 -81 0 -41 -4 -78 -10 -82 -5 -4
-9 -20 -8 -37 0 -16 -7 -38 -15 -47 -8 -10 -11 -18 -6 -18 4 0 3 -6 -3 -13 -6
-7 -9 -29 -7 -49 2 -21 0 -37 -3 -37 -18 3 -21 -3 -13 -24 6 -16 4 -28 -9 -45
-13 -15 -20 -18 -23 -10 -3 7 -5 1 -4 -14 1 -16 5 -28 9 -28 4 0 8 -7 8 -15 0
-7 6 -18 13 -22 18 -12 15 -34 -8 -58 -21 -22 -36 -23 -31 -2 1 7 1 9 -1 5 -3
-5 -12 -8 -21 -8 -8 0 -12 -3 -8 -7 4 -5 13 -8 19 -8 6 0 16 -13 21 -28 8 -22
7 -30 -4 -37 -10 -7 -11 -10 -3 -10 7 0 20 11 29 25 9 14 20 25 24 25 14 0
-14 -49 -35 -60 -12 -6 -14 -9 -3 -6 23 7 45 -21 30 -36 -16 -16 -15 -26 4
-30 13 -2 12 -7 -6 -25 -11 -13 -26 -23 -32 -23 -9 0 -9 3 0 12 7 7 12 23 12
36 0 23 -2 22 -30 -13 -33 -41 -38 -60 -15 -51 23 8 19 -27 -5 -49 -11 -10
-20 -23 -20 -29 1 -6 10 0 20 13 l20 23 0 -28 c0 -19 -3 -25 -9 -16 -11 18
-27 -4 -29 -42 -1 -17 -6 -32 -10 -35 -18 -13 -20 -40 -4 -47 27 -11 45 -13
56 -6 25 15 44 12 39 -8 -3 -11 -10 -17 -16 -13 -6 3 -7 1 -3 -6 9 -15 -3 -73
-14 -66 -4 3 -6 14 -3 25 4 14 0 20 -11 20 -9 0 -16 -4 -16 -9 0 -5 -9 -13
-20 -16 -11 -3 -20 -11 -20 -17 0 -7 5 -6 14 1 11 10 16 8 21 -8 3 -12 3 -31
-1 -43 -6 -21 -5 -21 10 -9 9 8 15 20 12 27 -3 8 0 11 8 8 7 -3 20 13 32 38
11 24 25 42 32 41 6 -2 14 8 18 22 3 14 10 25 15 25 12 0 11 -14 -2 -27 -8 -8
-8 -17 0 -31 7 -13 7 -23 1 -27 -11 -7 -9 -135 2 -135 5 0 8 7 8 16 0 8 4 13
9 10 5 -3 12 10 15 29 8 43 20 45 23 5 1 -17 -3 -30 -9 -30 -6 0 -8 -3 -5 -7
4 -3 0 -17 -9 -30 -8 -13 -13 -30 -11 -36 2 -7 0 -19 -4 -29 -7 -13 -5 -15 11
-11 12 3 20 0 20 -6 0 -7 -4 -10 -9 -7 -16 10 -29 -18 -24 -51 5 -33 23 -47
23 -18 0 8 4 15 8 15 4 0 8 22 7 48 -1 34 3 49 12 49 7 0 13 -5 13 -11 0 -10
29 24 30 35 0 3 -7 6 -15 6 -8 0 -15 -4 -15 -9 0 -4 -5 -8 -11 -8 -12 0 -3 57
12 76 5 6 10 21 13 35 2 13 9 23 15 21 6 -1 11 3 11 9 0 5 5 7 10 4 6 -4 10 5
10 19 0 14 5 26 11 26 6 0 9 7 5 15 -3 8 2 22 12 31 16 16 15 17 -10 11 -22
-6 -25 -4 -21 13 3 11 14 22 24 25 10 4 19 15 19 25 0 10 3 25 6 34 3 9 2 16
-4 16 -5 0 -12 -9 -15 -21 -4 -13 -10 -18 -17 -14 -9 6 -9 10 1 17 11 8 11 9
-1 5 -8 -2 -17 -14 -18 -28 -2 -13 -8 -28 -13 -33 -13 -15 -11 -28 4 -20 6 4
1 -4 -13 -17 -14 -14 -26 -24 -28 -23 -2 1 6 20 18 43 12 25 16 41 9 41 -8 0
-8 4 -1 13 6 7 10 26 10 43 -1 37 31 126 43 118 5 -3 9 0 9 6 0 6 4 9 9 5 5
-3 12 -1 16 5 3 5 0 10 -7 10 -9 1 -7 5 5 14 9 7 17 18 17 23 0 6 8 13 18 15
14 4 18 14 17 39 -1 19 -5 42 -10 52 -4 10 -5 21 -1 24 3 4 6 -2 6 -11 0 -10
6 -16 13 -13 6 2 11 10 9 16 -1 7 4 18 11 26 18 18 37 1 37 -34 0 -13 3 -22 6
-18 4 3 6 27 6 52 -1 27 3 43 8 40 6 -3 10 -1 10 6 0 7 3 10 6 7 3 -4 0 -16
-6 -28 -9 -16 -9 -20 -1 -15 8 5 11 -9 9 -48 -3 -51 -2 -55 18 -53 13 0 19 5
14 11 -4 6 -6 18 -4 29 1 10 -1 29 -6 42 -6 14 -6 24 0 24 4 0 11 -8 13 -17 3
-10 4 -6 4 10 -1 15 -4 27 -8 27 -11 0 2 38 17 51 18 15 20 -11 2 -30 -11 -10
-10 -11 3 -6 17 6 39 59 39 96 0 13 9 41 20 62 11 20 20 46 20 57 0 11 5 20
11 20 5 0 7 -5 3 -12 -4 -6 -3 -8 4 -5 5 4 8 17 4 29 -3 14 -2 19 6 14 7 -4
12 -1 12 9 0 9 6 23 14 31 8 7 12 22 9 33 -3 13 12 37 53 80 45 48 65 63 96
67 21 4 38 11 38 17 0 6 5 5 13 -1 10 -9 23 -6 50 8 20 11 48 20 63 20 14 0
23 4 20 9 -4 5 2 8 11 7 17 -3 26 0 74 25 15 7 19 7 14 0 -9 -16 26 -9 54 11
13 9 30 14 37 11 8 -3 14 0 14 6 0 6 13 11 29 11 16 0 31 6 34 14 4 9 14 12
26 9 12 -3 18 -10 15 -15 -4 -6 4 -4 17 3 13 7 33 14 44 16 38 5 50 9 64 17
10 7 12 5 7 -5 -4 -8 0 -5 8 5 9 11 16 15 16 9 0 -14 40 -5 62 15 10 8 24 12
33 9 8 -4 15 -2 15 4 0 6 9 7 23 3 21 -7 42 -10 80 -13 10 0 15 -5 12 -11 -3
-5 -2 -10 4 -10 5 0 13 10 16 21 l7 21 23 -23 c12 -13 21 -27 18 -31 -2 -4 3
-5 11 -2 9 3 16 11 16 18 0 6 5 4 10 -4 5 -8 15 -15 22 -16 7 0 24 -2 38 -3
l25 -3 -25 -8 -25 -8 28 -1 c16 -1 26 -5 22 -10 -3 -5 -1 -12 4 -15 5 -3 11 3
14 14 5 20 27 28 27 10 0 -5 -4 -10 -8 -10 -4 0 -9 -10 -9 -22 -2 -15 1 -18 6
-10 9 16 41 5 41 -14 0 -8 5 -14 11 -14 6 0 8 13 5 30 -3 21 0 30 10 30 8 0
11 -6 8 -15 -7 -18 7 -20 25 -2 11 10 13 10 7 0 -5 -9 1 -13 18 -13 14 0 26
-5 26 -11 0 -5 -4 -8 -8 -5 -4 3 -13 -8 -19 -25 -9 -23 -9 -29 2 -29 7 0 16 6
19 13 5 9 7 9 12 -1 4 -10 9 -10 19 -2 9 8 20 8 31 2 11 -6 13 -11 5 -16 -6
-4 -11 -12 -11 -19 0 -6 6 -2 14 8 8 11 12 24 8 29 -3 5 2 7 11 3 9 -3 18 -1
21 6 2 7 5 -1 6 -18 1 -30 1 -30 14 -7 11 20 14 21 25 9 6 -8 21 -13 31 -10
12 3 20 0 20 -7 0 -7 -7 -10 -15 -7 -8 4 -17 2 -20 -2 -2 -5 7 -11 20 -14 14
-2 28 -1 30 4 8 11 44 7 42 -6 -1 -5 4 -9 12 -7 12 3 12 1 0 -14 -13 -15 -12
-16 10 -9 21 6 23 5 18 -14 -5 -22 8 -30 16 -8 5 11 11 -17 8 -35 0 -4 6 -5
14 -2 8 4 15 1 15 -5 0 -6 9 -3 20 6 12 11 16 21 10 27 -6 6 -14 5 -23 -3 -12
-9 -16 -8 -20 3 -4 9 -2 18 3 21 6 4 10 0 10 -7 0 -10 2 -10 8 0 7 10 12 8 24
-5 25 -30 31 -43 15 -37 -8 3 -18 1 -22 -5 -3 -6 -1 -11 4 -11 17 0 13 -21 -6
-36 -10 -7 -13 -14 -6 -14 6 0 19 7 28 16 15 15 17 15 22 -5 3 -11 10 -18 16
-14 6 4 8 0 4 -10 -4 -10 -1 -17 5 -17 6 0 2 -10 -10 -23 l-21 -22 49 1 c28 1
47 -2 45 -6 -3 -5 1 -14 8 -22 7 -7 14 -17 15 -23 1 -5 9 -18 17 -27 13 -16
13 -18 0 -18 -8 0 -15 -4 -15 -9 0 -4 11 -6 24 -4 18 4 29 -2 41 -20 14 -22
21 -24 40 -17 19 7 23 6 18 -5 -3 -8 -9 -13 -13 -10 -5 3 -11 1 -15 -5 -3 -5
-2 -10 4 -10 6 0 8 -6 5 -14 -3 -8 3 -16 15 -19 12 -3 21 -11 21 -17 0 -7 -7
-10 -15 -6 -8 3 -15 2 -15 -3 0 -4 24 -8 52 -9 29 0 54 -6 56 -11 2 -6 11 -11
20 -11 13 0 14 2 3 9 -9 6 -10 11 -2 15 10 7 12 3 15 -31 1 -7 10 -19 21 -27
17 -14 18 -17 5 -26 -13 -8 -12 -10 5 -11 11 -1 23 -1 27 0 4 0 5 -6 2 -13 -3
-9 5 -20 23 -30 21 -11 23 -15 10 -16 -10 0 -27 5 -38 10 -12 7 -19 7 -19 1 0
-5 8 -11 17 -13 12 -2 17 -13 18 -33 0 -20 5 -30 15 -30 8 0 21 -4 28 -8 8 -6
12 0 13 20 1 15 3 21 6 12 2 -10 12 -19 22 -22 15 -3 18 -13 16 -46 -1 -22 1
-41 5 -41 5 0 6 -10 2 -22 -4 -18 -2 -20 19 -15 23 6 23 5 5 -8 -17 -13 -18
-15 -3 -15 9 0 17 -5 17 -11 0 -5 -3 -8 -7 -6 -5 3 -13 -1 -20 -8 -9 -10 -7
-14 10 -19 12 -3 24 -1 28 5 3 6 10 5 18 -4 9 -12 8 -16 -4 -21 -9 -3 -15 -17
-14 -33 1 -16 3 -21 6 -11 3 10 10 15 19 11 13 -5 13 -7 2 -14 -9 -6 -6 -9 12
-9 20 0 22 -2 10 -10 -12 -8 -10 -10 10 -11 14 0 19 -3 13 -6 -7 -2 -13 -9
-13 -15 0 -6 7 -8 15 -5 8 4 17 1 21 -5 4 -7 3 -8 -4 -4 -7 4 -12 2 -12 -3 0
-15 27 -14 36 0 5 8 10 6 16 -5 5 -9 13 -14 19 -11 5 4 9 1 9 -5 0 -6 4 -9 8
-6 5 3 9 -1 9 -9 0 -11 -5 -12 -20 -3 -15 7 -18 7 -12 -2 5 -9 1 -10 -15 -5
-20 6 -21 5 -9 -8 8 -8 17 -13 21 -11 3 2 9 -2 12 -8 5 -10 7 -10 12 0 5 10 9
10 20 1 8 -6 11 -16 7 -23 -3 -6 0 -5 8 2 12 11 12 14 -1 22 -12 8 -11 10 7
10 15 0 21 -5 19 -17 -2 -10 0 -27 5 -38 l8 -20 0 20 c1 17 3 17 11 5 9 -13
10 -13 10 0 1 13 2 13 13 -1 7 -8 20 -18 29 -22 13 -4 16 -2 12 11 -5 15 -4
15 6 -1 6 -9 15 -15 21 -12 5 4 9 2 9 -4 0 -5 8 -8 18 -7 9 2 25 -6 35 -17 14
-17 17 -18 17 -4 0 19 16 23 22 6 2 -6 14 -5 33 5 17 9 38 13 48 10 9 -3 17 0
17 6 0 6 4 8 10 5 5 -3 18 -2 28 4 10 5 24 6 32 1 11 -7 10 -11 -3 -25 -10 -9
-17 -22 -16 -28 0 -9 2 -8 6 1 2 6 9 12 14 12 5 0 23 9 41 21 25 16 28 20 11
16 -13 -3 -23 -1 -23 4 0 5 9 9 21 9 11 0 18 4 15 8 -2 4 4 9 15 9 12 1 17 -2
13 -9 -4 -6 2 -5 14 4 14 9 39 14 68 12 41 -2 52 -8 86 -45 38 -42 47 -56 28
-44 -7 4 -9 -2 -5 -18 9 -33 -33 -127 -56 -127 -10 0 -21 -5 -24 -11 -4 -6
-23 -8 -49 -4 -28 4 -36 3 -27 -4 10 -7 4 -8 -22 -6 -26 2 -37 -1 -37 -10 0
-7 -8 -19 -17 -26 -17 -13 -17 -13 -3 5 14 18 13 19 -2 13 -19 -7 -25 8 -8 16
6 3 5 4 -2 3 -7 -1 -14 -12 -16 -23 -2 -13 -13 -24 -28 -27 -24 -6 -35 -36
-12 -36 17 0 3 -11 -18 -14 -21 -3 -26 -26 -14 -66 5 -18 5 -30 0 -30 -5 0 -7
-6 -4 -14 3 -7 -2 -16 -12 -20 -13 -5 -14 -9 -4 -21 11 -13 9 -19 -7 -35 -12
-10 -23 -17 -26 -14 -2 2 -10 -2 -16 -10 -7 -8 -18 -13 -26 -10 -7 3 -16 1
-20 -5 -3 -6 -15 -11 -26 -11 -10 0 -19 -5 -19 -12 0 -6 -3 -8 -7 -5 -3 4 -13
-2 -20 -13 -8 -11 -18 -18 -22 -15 -5 2 -17 -2 -27 -10 -10 -8 -30 -15 -44
-15 -14 0 -38 -9 -55 -20 -16 -11 -36 -20 -43 -20 -13 0 -17 -3 -65 -45 -15
-14 -33 -26 -40 -26 -28 -3 -33 -5 -62 -24 -40 -26 -87 -77 -78 -84 5 -3 9
-22 11 -41 2 -26 0 -31 -7 -20 -9 13 -11 13 -11 -2 0 -19 33 -33 52 -22 10 6
11 4 1 -7 -18 -18 -16 -29 5 -29 14 0 15 -2 2 -10 -12 -7 -13 -13 -3 -27 6
-10 15 -17 21 -16 5 1 7 -9 4 -23 -2 -14 -1 -24 4 -23 5 1 11 1 14 -1 3 -1 16
-4 30 -6 14 -3 26 -9 28 -14 2 -5 9 -7 16 -4 8 3 12 -3 12 -18 -1 -18 4 -23
22 -22 18 1 22 -4 22 -26 0 -15 -7 -33 -15 -40 -8 -7 -15 -18 -15 -24 0 -6 5
-4 10 4 7 10 10 11 11 3 1 -7 3 -17 4 -23 1 -5 3 -14 4 -19 1 -12 40 -21 46
-10 8 12 35 -1 35 -17 0 -17 17 -18 23 -1 2 6 6 -7 8 -30 3 -28 1 -43 -7 -43
-10 0 -39 -53 -39 -72 0 -3 -3 -9 -6 -12 -3 -4 -4 -18 -1 -31 3 -19 10 -25 31
-25 14 0 43 0 65 -2 l38 -2 2 47 c1 26 -3 49 -9 51 -5 3 4 4 20 4 40 -2 75 10
75 26 0 20 32 44 68 51 27 4 32 2 32 -15 0 -11 5 -20 10 -20 6 0 10 -20 10
-45 0 -25 5 -45 10 -45 6 0 10 -6 10 -14 0 -21 -106 -20 -114 0 -3 9 -10 13
-15 10 -5 -4 -12 0 -15 6 -3 9 -11 6 -25 -11 -26 -29 -27 -60 -3 -63 37 -3 48
-5 75 -13 19 -5 35 -2 51 9 23 14 25 14 28 -1 3 -17 10 -18 208 -28 162 -7
209 10 210 77 0 16 10 34 24 46 13 10 31 35 40 56 14 33 17 36 37 26 12 -7 36
-10 55 -8 21 2 35 -1 38 -9 3 -7 12 -13 21 -13 8 0 15 -4 15 -10 0 -5 7 -10
15 -10 25 0 55 -36 42 -49 -9 -9 -2 -10 26 -6 24 4 37 2 37 -5 0 -6 5 -8 10
-5 6 3 10 2 10 -4 0 -10 25 -9 36 2 4 3 1 13 -5 21 -7 8 -10 19 -7 24 3 5 -3
17 -14 27 -11 10 -20 14 -20 9 -1 -5 -7 2 -14 16 -13 24 -141 98 -178 104 -9
1 -24 8 -34 16 -9 8 -18 13 -18 10 -1 -5 -67 13 -121 34 -16 6 -33 11 -37 12
-5 1 -9 3 -10 4 -2 1 -16 4 -32 6 -16 2 -33 9 -37 16 -5 7 -9 10 -9 6 0 -4
-13 -2 -30 3 -16 6 -27 15 -24 21 3 5 13 7 21 4 8 -3 20 -3 26 1 7 4 26 6 44
4 19 -1 33 2 33 8 0 6 -9 11 -20 11 -11 0 -20 4 -20 10 0 5 -16 12 -35 16 -19
3 -35 12 -35 19 0 8 -9 17 -20 20 -35 11 -24 52 13 46 4 0 7 5 7 13 0 8 12 24
28 35 15 12 33 26 40 32 7 6 16 9 19 6 2 -3 25 3 49 13 24 11 44 17 44 14 0
-2 10 0 21 7 15 8 19 8 15 0 -9 -15 -5 -14 32 5 20 9 46 13 73 10 44 -5 128
18 141 38 4 6 24 11 45 11 43 1 87 21 78 36 -4 5 -2 9 4 9 5 0 11 -5 13 -11 2
-6 12 0 23 12 11 12 14 19 8 15 -7 -4 -13 -2 -13 4 0 6 -5 8 -12 4 -9 -6 -9
-3 0 9 8 9 11 20 8 25 -2 4 25 7 62 7 37 -1 75 3 86 8 13 6 21 5 27 -4 6 -10
9 -10 9 -2 0 6 -5 15 -11 19 -8 4 -7 9 2 15 11 7 9 9 -6 9 -12 0 -16 3 -9 8 6
4 10 15 8 25 -2 14 2 18 17 14 13 -4 19 -1 16 6 -3 7 -10 11 -17 9 -10 -2 -11
0 -2 10 9 11 6 18 -13 32 -15 11 -21 24 -18 34 4 10 2 13 -6 8 -9 -6 -11 2 -7
33 4 40 4 41 -27 42 -18 1 -35 1 -39 0 -3 0 -5 10 -4 23 2 16 -1 23 -9 19 -7
-2 -16 0 -19 6 -10 16 46 8 65 -9 9 -8 14 -19 11 -23 -2 -5 4 -7 14 -5 11 3
31 -2 46 -9 23 -11 29 -11 40 0 14 16 50 10 42 -7 -3 -6 3 -1 14 12 21 23 38
30 26 10 -4 -7 -3 -8 4 -4 31 19 99 -49 108 -109 5 -40 24 -74 24 -46 0 6 5
11 12 11 6 0 8 -3 5 -7 -4 -3 -2 -13 5 -20 9 -11 9 -16 -1 -23 -8 -5 -9 -10
-3 -14 6 -3 12 0 15 6 3 8 9 3 15 -12 11 -28 6 -42 -8 -20 -7 11 -10 7 -10
-16 0 -39 25 -52 41 -23 6 12 9 43 7 70 -1 27 0 49 5 49 4 0 7 -11 7 -25 0
-14 4 -25 10 -25 5 0 6 -7 3 -17 -4 -11 -3 -14 5 -9 7 4 12 2 12 -4 0 -6 5 -8
10 -5 6 3 10 0 10 -7 0 -10 2 -10 9 0 4 8 12 13 17 12 9 -3 19 13 28 43 3 10
10 15 16 12 13 -8 13 6 0 39 -7 20 -16 26 -40 26 -16 0 -30 5 -30 11 0 6 -10
20 -22 31 l-23 19 33 -5 c29 -5 32 -3 32 20 0 16 -8 28 -22 34 -13 5 -18 9
-13 10 7 0 7 3 0 8 -16 12 -44 71 -36 76 4 3 14 -3 23 -13 17 -20 95 -23 91
-3 -4 15 3 15 28 2 12 -7 19 -7 19 -1 0 6 7 7 17 4 11 -4 14 -3 9 5 -4 7 -1
12 9 12 9 0 27 11 40 24 17 17 27 20 34 13 8 -8 11 -6 11 5 0 9 -4 20 -10 23
-15 9 -12 43 4 52 7 4 18 18 25 31 14 26 33 28 51 7 7 -9 15 -13 18 -10 3 3
12 -1 20 -8 13 -10 14 -9 3 10 -6 13 -20 27 -31 33 -14 8 -19 18 -16 35 3 15
0 25 -7 25 -8 0 -7 3 2 9 11 7 10 10 -5 14 -16 4 -17 5 -1 6 9 0 17 5 17 10 0
5 7 11 15 15 12 4 13 2 6 -13 -6 -10 -7 -21 -4 -25 3 -3 1 -6 -4 -6 -13 0 -11
-18 5 -45 9 -16 11 -17 12 -4 0 9 7 22 15 29 8 7 15 23 15 35 0 13 3 25 8 28
4 2 1 2 -5 1 -7 -2 -13 3 -13 11 0 8 4 15 10 15 5 0 8 15 6 34 -2 26 2 36 15
39 10 3 20 -1 23 -9 3 -8 10 -14 16 -14 7 0 8 6 0 19 -14 26 -13 31 6 31 13 0
14 3 5 14 -9 11 -9 16 2 23 19 11 27 71 11 77 -8 3 -20 -1 -28 -9 -22 -23 -34
-18 -28 13 2 15 1 24 -3 20 -4 -4 -14 -1 -21 7 -8 7 -35 21 -61 31 -27 9 -52
22 -58 29 -5 6 -21 17 -33 24 -13 7 -21 15 -19 18 3 2 16 -1 29 -8 l23 -12
-22 25 c-24 25 -31 44 -13 33 6 -3 10 -3 11 2 0 4 2 16 4 26 2 11 -3 17 -15
17 -16 0 -30 18 -30 41 0 5 7 9 15 9 8 0 15 7 15 15 0 8 -5 14 -11 12 -6 -1
-13 9 -14 23 -1 14 -12 49 -23 77 -11 30 -16 55 -11 59 5 3 12 -8 15 -25 4
-16 12 -32 20 -35 8 -3 14 -10 14 -16 0 -14 25 -40 37 -40 15 0 32 63 27 95
-3 17 -5 38 -5 48 0 10 -5 15 -11 11 -7 -4 -8 -2 -4 4 4 6 -3 31 -15 54 -23
45 -36 133 -17 122 7 -4 8 5 3 27 -4 22 -3 29 3 20 14 -20 22 59 9 84 -6 11
-11 45 -12 75 -1 67 -33 170 -51 170 -8 0 -16 -11 -20 -25 -3 -14 -10 -23 -14
-20 -5 3 -21 -10 -37 -30 -33 -42 -40 -43 -40 -9 0 15 3 21 7 15 4 -8 19 1 43
26 21 20 37 41 37 45 0 4 6 8 14 8 9 0 12 7 9 20 -3 11 -8 18 -12 16 -4 -3 -8
8 -9 24 -1 16 -6 40 -11 52 -4 13 -5 32 -1 43 8 21 8 21 24 -29 4 -10 8 -17
10 -15 9 9 -24 122 -40 140 -9 10 -12 19 -7 19 13 0 -42 58 -89 94 -21 15 -35
32 -32 37 3 5 1 9 -4 9 -6 0 -13 11 -16 24 -3 14 -14 27 -24 30 -25 8 -92 73
-84 82 4 4 2 4 -5 0 -17 -10 -68 25 -52 35 19 11 -11 35 -59 49 -23 6 -43 16
-43 23 -1 7 -2 26 -3 42 -1 23 -6 31 -23 33 -13 2 -23 8 -23 14 0 7 -5 6 -15
-2 -13 -11 -73 -15 -119 -8 -10 2 -21 -3 -23 -9 -3 -7 2 -13 11 -13 9 0 16 -4
16 -10 0 -16 -57 -12 -74 6 -9 8 -16 11 -16 6 0 -6 -8 -8 -17 -6 -10 3 -38 -2
-62 -11 -52 -18 -48 -18 -48 0 0 8 4 12 8 9 4 -2 10 0 14 6 4 6 11 7 17 4 7
-4 8 -2 4 5 -4 6 -11 9 -16 6 -5 -3 -11 -1 -14 4 -9 14 31 20 45 7 9 -8 10 -8
4 3 -6 11 -1 12 30 7 35 -7 37 -6 21 9 -15 16 -20 30 -17 48 1 5 -3 6 -8 2 -6
-3 -8 -11 -5 -18 3 -9 -7 -14 -31 -15 -46 -3 -84 -18 -91 -35 -3 -8 -14 -12
-27 -10 -13 3 -31 -4 -44 -16 -24 -22 -100 -31 -87 -10 3 6 -7 4 -24 -5 -16
-8 -55 -16 -86 -18 -31 -2 -56 -7 -56 -12 0 -5 -3 -6 -6 -3 -4 3 -15 2 -25 -4
-14 -7 -17 -6 -13 5 9 22 -14 29 -34 10 -16 -16 -17 -16 -20 -1 -2 9 -7 17
-12 17 -13 0 -30 -26 -22 -36 4 -4 -1 -2 -10 5 -17 13 -38 8 -38 -9 0 -17 33
-41 51 -37 12 3 16 0 12 -9 -7 -18 -11 -18 -55 6 -47 25 -107 33 -159 21 -52
-12 -59 -19 -34 -38 15 -11 37 -13 84 -10 37 3 58 1 50 -4 -8 -5 -31 -9 -51
-9 -40 0 -53 -19 -15 -22 32 -2 37 -1 85 10 35 8 41 8 32 -3 -8 -10 -7 -14 7
-18 13 -3 10 -5 -7 -6 -18 -1 -26 -7 -26 -20 0 -15 3 -17 13 -9 9 7 13 7 13
-2 0 -9 21 -11 78 -9 56 3 79 1 79 -8 0 -7 -3 -12 -6 -11 -3 0 -15 0 -25 -1
-29 -2 -11 -13 31 -20 37 -6 59 -31 27 -31 -11 0 -14 -3 -8 -9 13 -13 65 -2
57 13 -4 6 0 6 9 -2 9 -7 29 -12 44 -11 35 3 76 -9 86 -25 5 -7 8 -5 8 5 0 9
8 19 18 23 9 3 23 9 31 12 9 4 11 2 7 -5 -5 -7 2 -11 20 -11 36 0 24 -11 -23
-21 l-38 -8 38 2 c45 4 48 -7 7 -22 -22 -7 -29 -7 -24 1 4 6 1 9 -6 6 -8 -2
-16 -10 -18 -17 -3 -9 9 -11 49 -7 30 2 64 8 76 11 18 6 21 4 17 -12 -4 -14 1
-19 17 -20 17 -2 19 1 10 10 -6 6 -11 18 -11 27 0 12 2 12 9 2 6 -9 19 -11 45
-7 40 8 48 0 14 -16 -19 -8 -17 -9 15 -5 20 3 37 1 37 -3 0 -10 -74 -21 -133
-21 -38 0 -39 -1 -21 -14 17 -13 13 -14 -43 -11 -35 1 -63 -1 -63 -6 0 -5 9
-9 19 -9 11 0 22 -8 25 -18 4 -10 25 -28 49 -40 l42 -22 -39 4 c-21 2 -41 8
-45 13 -3 5 -15 9 -26 8 -11 0 -30 10 -42 22 -12 13 -24 19 -28 14 -3 -6 -18
-6 -37 0 -17 5 -34 7 -36 4 -3 -3 -10 3 -17 12 -7 9 -18 17 -26 19 -8 1 -21 3
-29 5 -8 2 -14 -2 -12 -8 3 -19 -4 -16 -32 12 -26 26 -66 34 -66 13 0 -6 -7
-4 -18 5 -10 10 -24 17 -31 17 -7 0 -36 11 -64 24 -51 24 -96 38 -127 40 -8 1
-14 6 -13 11 1 6 -16 18 -38 27 -21 9 -39 12 -39 7 0 -6 -7 -3 -16 6 -10 9
-25 14 -35 12 -11 -3 -19 -1 -19 3 0 12 -58 30 -98 30 -25 0 -33 4 -29 14 3 8
-1 17 -10 20 -11 5 -14 2 -9 -11 5 -13 1 -12 -11 4 -10 13 -33 24 -53 27 -69
10 -105 18 -132 32 -15 8 -32 14 -38 14 -7 0 -23 9 -37 20 -14 11 -37 20 -52
20 -20 0 -23 2 -11 10 13 8 12 10 -2 10 -10 0 -18 5 -18 11 0 5 -4 7 -10 4 -5
-3 -10 -1 -10 4 0 6 -7 11 -16 11 -8 0 -12 5 -9 10 3 6 -4 10 -16 10 -18 0
-19 -2 -9 -15 19 -23 -12 -19 -44 6 -14 11 -36 19 -48 17 -19 -2 -23 2 -24 25
-1 29 -14 52 -14 24 0 -33 -72 -33 -105 0 -9 8 -26 16 -40 17 -13 0 -23 6 -22
11 1 6 -6 9 -17 7 -10 -2 -15 1 -12 7 4 5 -3 15 -16 22 -16 9 -23 9 -26 0 -2
-6 -8 -11 -14 -11 -7 0 -6 5 1 14 8 10 9 16 1 21 -5 3 -10 3 -10 -1 0 -4 -8 2
-17 12 -10 10 -22 19 -28 20 -20 1 -65 24 -65 33 0 5 -14 12 -30 16 -17 4 -28
10 -25 15 5 8 -24 25 -37 22 -5 -1 -8 2 -8 7 0 5 -11 12 -25 15 -14 4 -25 13
-25 21 0 8 -6 15 -13 15 -7 0 -23 10 -34 23 -44 47 -73 69 -73 56 0 -8 -9 1
-20 19 -19 30 -38 46 -25 20 4 -7 0 -5 -8 5 -8 9 -17 17 -20 17 -3 0 -18 11
-33 25 -14 13 -65 45 -113 69 -139 72 -147 76 -134 76 7 0 36 -9 65 -20 85
-32 85 -28 0 41 -7 6 -16 8 -19 5 -3 -3 -12 -1 -20 5 -7 6 -13 9 -13 6 0 -3
-12 5 -27 19 -18 16 -35 24 -50 21 -12 -2 -20 -1 -18 3 7 11 -20 20 -56 20
-16 0 -28 3 -28 8 4 25 -4 32 -42 32 -25 0 -38 -4 -34 -10 4 -6 10 -8 14 -6 4
3 13 1 19 -3 18 -11 -53 -12 -81 -2 -14 6 -30 5 -41 -1 -13 -7 -17 -7 -12 0 4
6 -5 12 -21 15 -20 3 -18 4 9 4 21 -1 40 2 44 6 7 7 -34 10 -123 10 -24 0 -43
5 -43 11 0 6 -4 5 -9 -2 -4 -8 -10 -13 -12 -12 -2 1 -12 -2 -21 -5 -9 -4 -25
-5 -35 -2 -12 3 -8 5 10 6 27 1 36 14 17 26 -5 3 -10 12 -10 18 0 7 4 6 10 -3
9 -13 11 -13 20 0 6 9 10 10 10 3 0 -7 11 -10 27 -9 20 2 29 10 33 27 l6 24 6
-24 c4 -12 11 -20 16 -17 6 3 13 0 16 -6 5 -11 7 -11 12 0 3 6 10 10 15 6 5
-3 9 -1 9 4 0 5 11 7 25 4 15 -2 25 0 25 7 0 7 -8 11 -17 10 -36 -3 -54 1 -47
12 3 6 15 8 26 6 16 -5 17 -3 7 9 -8 10 -15 11 -24 4 -9 -8 -15 -7 -19 2 -4 9
-8 10 -12 1 -4 -8 -12 -8 -31 2 -14 7 -32 11 -39 8 -8 -3 -22 -2 -31 2 -23 10
-123 13 -123 4 0 -18 -33 -16 -51 2 -18 18 -20 18 -17 2z m2207 -1157 c9 -7
34 -18 56 -24 61 -16 253 -87 315 -116 30 -14 60 -26 67 -26 6 0 18 -9 26 -20
8 -11 16 -18 19 -15 7 7 24 -15 33 -43 6 -21 5 -22 -12 -14 -11 6 -27 6 -42 1
-19 -8 -21 -12 -11 -24 7 -8 16 -12 21 -9 5 3 9 0 9 -6 0 -14 -38 -4 -61 17
-13 11 -18 11 -21 2 -3 -8 -11 -10 -23 -5 -16 6 -17 9 -5 16 10 6 -2 15 -45
34 -32 15 -63 33 -69 41 -15 19 -107 50 -193 65 -40 6 -73 15 -73 20 0 4 10 6
22 2 13 -3 19 -1 15 6 -8 12 60 -5 133 -33 25 -9 59 -19 75 -21 43 -7 -42 33
-176 82 -58 22 -117 47 -130 57 -14 9 -17 14 -6 11 9 -4 17 -1 17 5 0 15 40
14 59 -3z m1348 -31 c5 -4 0 -5 -9 -2 -10 3 -20 2 -22 -2 -3 -5 18 -12 46 -15
30 -4 47 -10 40 -15 -19 -12 -11 -61 10 -61 10 0 18 -6 18 -14 0 -19 13 -27
50 -31 17 -2 33 2 40 11 7 8 17 14 23 14 5 0 -2 -9 -17 -21 -14 -11 -26 -26
-25 -32 3 -28 -2 -36 -18 -30 -10 3 -15 3 -12 -1 4 -4 15 -8 26 -10 19 -4 80
-56 66 -56 -4 0 -2 -5 5 -12 7 -7 12 -20 12 -30 0 -18 37 -80 53 -86 4 -2 7
-11 7 -20 -1 -15 -2 -15 -11 1 -11 20 -35 23 -41 5 -2 -6 4 -20 14 -30 10 -10
18 -25 18 -33 0 -9 6 -12 15 -9 18 7 20 -7 3 -24 -9 -9 -9 -12 0 -12 7 0 12
-9 12 -20 0 -11 4 -20 8 -20 5 0 18 9 30 20 22 21 37 27 27 10 -3 -5 -2 -10 3
-10 6 0 8 -9 5 -20 -5 -19 -7 -19 -23 -5 -9 8 -20 12 -24 8 -4 -4 10 -23 31
-41 21 -19 30 -29 20 -22 -16 12 -17 10 -15 -21 1 -19 6 -40 11 -47 7 -9 6
-11 -7 -6 -9 3 -16 10 -16 15 0 5 -10 8 -22 8 -17 -1 -19 -2 -5 -6 16 -4 25
-23 10 -23 -14 0 -13 -64 1 -79 25 -30 27 -39 7 -34 -14 3 -19 0 -18 -14 1
-10 8 -22 15 -26 10 -6 9 -11 -2 -23 -18 -17 -28 -18 -25 -1 7 33 -49 116 -69
103 -5 -3 -19 5 -32 19 -17 18 -18 23 -6 21 8 -1 19 -5 22 -9 11 -11 26 -8 19
3 -4 6 -4 18 0 28 5 14 7 14 15 2 7 -10 10 -11 10 -2 0 7 -14 21 -31 31 -18
11 -26 22 -20 25 6 4 11 3 11 -2 0 -14 32 -20 55 -12 17 6 11 11 -32 30 -29
12 -53 27 -53 32 0 5 -4 6 -10 3 -5 -3 -10 2 -10 11 0 10 -15 34 -32 53 -18
18 -26 30 -18 26 13 -8 13 -6 2 7 -11 14 -10 18 6 30 34 24 37 39 5 33 -25 -6
-26 -5 -10 8 17 14 24 33 8 23 -5 -3 -15 2 -22 12 -13 15 -12 16 4 3 9 -7 17
-10 17 -5 0 4 5 3 11 -3 11 -11 49 -6 49 7 0 4 -17 23 -37 41 -21 18 -37 37
-35 41 1 4 -6 8 -15 9 -10 0 -13 3 -7 5 7 3 9 17 5 37 -7 34 -26 39 -78 23
-14 -5 -23 -3 -23 3 0 6 -6 11 -12 11 -8 0 -13 13 -13 30 0 17 3 30 8 30 4 0
7 5 7 10 0 6 -9 10 -19 10 -10 0 -21 6 -24 14 -4 10 0 12 14 9 13 -4 19 0 19
11 0 9 5 16 10 16 6 0 10 7 10 15 0 8 5 15 10 15 6 0 10 5 10 10 0 7 -6 7 -20
0 -17 -9 -25 -6 -46 15 -13 14 -29 25 -34 25 -6 0 -10 5 -10 11 0 6 -7 8 -16
5 -8 -3 -13 -2 -10 2 6 10 93 8 103 -3z m308 -1515 c22 -11 45 -20 53 -20 7 0
10 -4 7 -10 -3 -5 -2 -10 4 -10 5 0 12 6 14 13 3 6 6 -2 6 -20 1 -35 15 -44
48 -32 25 9 47 -10 41 -38 -2 -13 -14 -19 -47 -21 -47 -4 -95 14 -84 31 4 6
-2 8 -15 5 -12 -4 -20 -2 -17 2 3 5 1 11 -5 15 -5 3 -10 14 -10 25 0 10 -6 20
-14 23 -10 4 -30 57 -22 57 1 0 19 -9 41 -20z"/>
<path d="M2528 11279 c-2 -5 -23 -11 -48 -14 -25 -2 -46 -9 -48 -14 -2 -7 -12
-7 -29 0 -29 11 -63 4 -63 -13 0 -6 -9 -3 -20 7 -11 10 -28 15 -40 12 -11 -3
-22 -2 -24 1 -5 9 -55 7 -81 -3 -11 -4 -36 -15 -55 -23 -41 -17 -54 -21 -97
-24 -17 -2 -29 -6 -26 -10 2 -5 -3 -8 -11 -8 -9 0 -16 5 -16 10 0 6 -4 10 -10
10 -5 0 -10 -6 -10 -14 0 -7 -9 -16 -20 -19 -13 -3 -20 -14 -20 -30 0 -17 -7
-26 -22 -30 -18 -5 -19 -8 -8 -22 7 -9 21 -13 31 -10 11 4 19 2 19 -3 0 -5 23
-7 50 -4 31 3 50 1 50 -6 0 -6 10 -9 23 -8 20 3 23 -1 19 -22 -3 -17 -1 -23 7
-18 6 4 11 2 11 -3 0 -6 3 -10 8 -9 4 1 21 -5 37 -12 17 -7 38 -12 48 -12 10
0 20 -5 23 -13 3 -8 16 -11 34 -9 16 3 32 0 36 -7 5 -9 1 -10 -15 -6 -18 4
-21 2 -17 -10 5 -12 4 -13 -7 -5 -10 9 -18 8 -33 -3 -17 -13 -17 -14 -2 -15 9
0 23 -6 30 -13 24 -24 56 -37 91 -37 19 0 47 -6 63 -14 78 -37 107 -49 121
-49 7 0 12 -6 9 -14 -4 -9 3 -13 19 -13 18 0 25 -5 25 -19 0 -11 9 -23 20 -26
11 -4 20 -15 20 -26 0 -11 5 -17 10 -14 6 3 10 -1 10 -9 0 -9 -4 -16 -10 -16
-5 0 -10 -13 -10 -30 0 -22 -4 -28 -15 -24 -8 3 -20 2 -27 -2 -17 -11 -32 -14
-95 -21 -29 -3 -53 -10 -53 -15 0 -5 -4 -6 -10 -3 -5 3 -10 1 -10 -4 0 -6 7
-11 15 -11 8 0 15 5 15 11 0 5 5 7 10 4 6 -3 50 -8 98 -11 48 -2 103 -5 122
-7 19 -2 49 -4 65 -5 23 -2 27 -4 15 -12 -13 -9 -13 -10 0 -10 13 0 13 -2 0
-9 -8 -6 -18 -7 -22 -5 -4 3 -8 -1 -8 -8 0 -10 -2 -10 -9 1 -7 10 -26 11 -92
5 -46 -4 -96 -8 -111 -8 -14 -1 -24 -4 -21 -8 2 -5 -7 -8 -20 -8 -28 0 -117
-25 -162 -45 -31 -14 -105 -39 -117 -40 -3 0 -10 -3 -14 -7 -4 -5 -16 -8 -26
-8 -10 0 -18 -4 -18 -10 0 -5 -3 -9 -7 -8 -5 1 -21 -4 -36 -10 -16 -7 -34 -12
-40 -12 -17 0 -63 -43 -61 -57 1 -7 2 -17 3 -23 0 -5 9 -10 19 -11 12 0 11 -3
-6 -10 -13 -5 -28 -7 -33 -3 -10 6 -12 -7 -3 -29 4 -12 13 -13 51 -3 47 12
213 0 242 -18 10 -7 12 -5 6 5 -17 28 -59 68 -67 63 -4 -3 -8 0 -8 5 0 6 4 11
9 11 5 0 16 6 23 13 14 14 89 41 143 51 37 7 52 -2 56 -34 3 -16 12 -26 28
-30 14 -3 27 -12 29 -19 3 -9 0 -11 -8 -6 -22 14 -28 -16 -11 -66 14 -43 20
-50 50 -55 42 -8 66 -11 109 -13 23 -1 32 -6 33 -18 0 -15 1 -16 7 -3 6 13 24
16 84 15 43 0 78 -4 78 -8 0 -5 5 -5 11 -2 6 4 33 8 61 9 35 1 52 -3 58 -14 6
-10 9 -11 10 -2 0 6 5 12 11 12 5 0 7 -4 4 -10 -3 -5 -1 -10 4 -10 6 0 11 4
11 9 0 17 30 20 65 5 26 -10 41 -12 55 -4 23 12 137 13 144 1 3 -4 16 -8 28
-7 13 1 33 -1 46 -6 26 -9 95 29 87 49 -2 7 2 10 9 7 19 -7 49 44 51 86 3 50
15 102 29 119 9 12 8 13 -3 6 -11 -6 -13 -4 -8 8 3 10 3 17 -2 17 -4 0 -6 11
-3 25 2 14 7 23 11 21 4 -3 6 8 5 24 -2 28 18 46 37 34 5 -3 8 0 7 8 -2 8 4
12 15 10 9 -2 17 2 17 9 0 6 7 8 16 5 15 -6 15 -4 3 10 -13 16 -11 17 16 11
17 -3 24 -4 18 -1 -17 8 1 26 50 49 21 10 35 20 32 23 -2 3 5 12 16 20 l22 15
-24 13 c-17 10 -19 13 -8 14 20 0 33 27 18 36 -6 3 3 18 19 34 l29 27 -41 20
c-23 10 -51 18 -63 17 -16 -1 -23 4 -23 16 0 20 -23 43 -33 33 -4 -3 -13 0
-22 7 -8 7 -24 10 -34 7 -17 -4 -18 -2 -10 20 12 32 12 33 -6 33 -8 0 -15 5
-15 11 0 6 -7 4 -15 -5 -8 -8 -15 -17 -15 -21 0 -7 -26 -35 -33 -35 -2 0 -4
14 -5 31 -1 34 -19 66 -59 104 -36 33 -47 32 -39 -5 7 -36 -10 -40 -26 -5 -6
13 -14 22 -18 20 -4 -2 -17 9 -29 26 -12 16 -27 29 -34 28 -19 -3 -67 12 -67
22 0 5 -6 9 -14 9 -7 0 -19 6 -25 14 -6 7 -23 12 -38 12 -16 -1 -46 6 -68 15
-22 8 -62 15 -90 14 -27 -1 -55 1 -60 6 -6 4 -29 10 -50 13 -22 2 -40 5 -40 6
0 1 -13 3 -29 5 -15 2 -37 12 -49 22 -15 13 -18 14 -13 3 7 -13 6 -13 -6 0
-18 20 -54 40 -73 40 -8 0 -15 5 -15 11 0 5 -4 7 -10 4 -5 -3 -10 0 -10 7 0 9
-3 9 -10 -2 -5 -8 -10 -10 -10 -4 0 14 -38 25 -42 13z m488 -989 c18 -15 30
-30 28 -33 -3 -2 6 -2 19 0 18 4 26 0 30 -16 3 -11 0 -24 -7 -29 -20 -16 -54
-23 -61 -12 -7 12 -94 3 -112 -12 -18 -15 -80 -21 -87 -9 -4 6 0 21 8 33 8 13
22 50 32 84 l17 61 51 -19 c27 -11 65 -32 82 -48z"/>
<path d="M3425 8769 c-88 -21 -165 -51 -165 -65 0 -9 -4 -12 -10 -9 -19 12
-10 -31 10 -48 11 -9 20 -27 20 -39 0 -19 2 -20 10 -8 8 12 10 12 10 1 0 -8 3
-11 7 -8 3 4 13 1 21 -6 13 -10 15 -9 10 10 -4 15 4 31 29 58 29 31 42 37 86
41 116 9 128 11 138 21 14 14 -42 51 -87 56 -22 3 -57 1 -79 -4z"/>
<path d="M4258 8687 c-28 -22 -22 -32 35 -50 72 -23 148 -37 141 -25 -3 5 8 6
24 3 31 -5 56 13 44 31 -25 36 -211 68 -244 41z"/>
<path d="M3531 8456 c-18 -10 -29 -11 -42 -3 -13 8 -21 6 -35 -8 -11 -10 -18
-20 -17 -22 6 -8 -11 -33 -23 -33 -8 0 -14 -5 -14 -10 0 -7 -6 -7 -19 0 -21
11 -37 -2 -26 -20 3 -5 1 -10 -5 -10 -6 0 -8 -4 -5 -10 3 -6 -1 -7 -10 -4 -11
5 -18 0 -22 -15 -6 -25 -7 -25 -33 -9 -17 11 -23 8 -48 -19 -19 -22 -32 -29
-42 -23 -15 9 -42 -2 -73 -31 -24 -22 -70 -34 -75 -20 -2 6 -13 0 -24 -14 -11
-15 -26 -24 -34 -21 -7 3 -14 0 -16 -5 -2 -6 -28 -13 -58 -16 -30 -3 -59 -8
-65 -13 -5 -4 -27 -7 -47 -6 -21 1 -38 -2 -38 -6 0 -4 -11 -8 -25 -8 -14 0
-25 -6 -25 -12 0 -10 -2 -10 -9 0 -7 12 -12 12 -30 1 -11 -8 -21 -17 -21 -21
0 -5 -6 -8 -14 -8 -8 0 -21 -8 -28 -18 -7 -10 -26 -27 -41 -37 -24 -16 -30
-16 -38 -4 -8 12 -10 12 -19 -1 -5 -8 -10 -23 -10 -32 0 -9 -4 -20 -10 -23 -5
-3 -10 -15 -10 -25 0 -10 -16 -48 -35 -84 -39 -73 -46 -140 -20 -179 8 -13 14
-42 13 -68 -1 -37 3 -49 30 -78 18 -18 32 -42 32 -53 0 -10 4 -17 9 -13 5 3
12 1 16 -5 4 -6 11 -8 16 -5 5 4 9 2 9 -3 0 -5 13 -8 29 -7 17 1 30 -1 29 -4
-3 -26 3 -31 22 -19 14 9 16 14 7 20 -8 5 -7 8 6 8 15 0 22 20 19 51 -1 3 34
5 78 3 69 -2 83 -5 117 -30 21 -16 40 -32 41 -36 8 -18 20 -6 15 15 -4 18 -3
19 7 7 9 -12 10 -6 5 28 -6 35 -4 42 9 42 9 0 20 10 25 23 15 38 71 75 71 46
0 -11 5 -10 69 8 20 5 23 3 18 -10 -5 -13 2 -15 46 -14 37 1 51 -2 50 -10 -3
-14 40 -28 56 -18 6 3 11 2 11 -4 0 -7 8 -7 23 -2 13 5 30 5 38 1 7 -4 25 -10
39 -12 14 -1 31 -9 38 -15 7 -7 24 -13 36 -13 12 0 26 -3 30 -7 3 -4 17 -8 29
-10 12 -2 36 -6 52 -9 17 -3 58 -7 93 -7 44 -2 66 -7 72 -17 8 -12 10 -12 10
-1 0 9 4 10 13 3 15 -12 77 -21 77 -12 0 4 21 3 47 -1 26 -5 55 -7 65 -3 18 5
109 16 140 15 9 0 18 7 20 16 3 15 15 18 101 26 33 2 34 5 5 16 -15 6 -28 5
-37 -3 -12 -9 -14 -8 -8 6 4 13 1 16 -14 13 -10 -2 -19 0 -19 6 0 5 5 9 11 9
5 0 7 5 4 10 -4 6 -13 4 -23 -7 -16 -16 -17 -16 -20 0 -2 10 -8 14 -14 10 -7
-4 -9 0 -5 10 5 13 -2 18 -30 23 -21 4 -46 15 -57 25 -13 12 -28 17 -45 13
-16 -3 -21 -2 -14 3 7 5 -6 9 -33 9 -25 1 -52 8 -62 16 -25 22 -66 43 -58 29
4 -6 2 -11 -3 -11 -6 0 -11 6 -11 13 0 9 -2 9 -8 0 -8 -13 -102 -13 -102 -1 0
4 -20 6 -45 4 -26 -2 -46 1 -48 8 -3 6 -8 3 -12 -7 -7 -17 -8 -17 -22 0 -8 10
-12 12 -8 6 8 -17 -5 -16 -61 3 -25 8 -52 13 -60 10 -7 -3 -13 -2 -11 2 1 4
-1 8 -6 9 -4 2 -21 10 -37 18 -28 14 -30 14 -30 -2 0 -14 -2 -15 -9 -4 -7 11
-9 11 -14 0 -3 -8 -6 -3 -7 11 -1 39 -35 73 -62 64 -13 -4 -29 -7 -37 -5 -22
4 -114 -21 -140 -38 -13 -8 -29 -16 -35 -17 -6 -1 -33 -12 -61 -25 -57 -27
-95 -27 -95 1 0 10 -9 20 -20 23 -26 7 -23 53 6 82 40 40 95 67 110 54 11 -9
14 -8 14 4 0 19 21 27 75 27 26 0 47 6 55 15 10 12 15 13 21 3 13 -21 66 -21
81 1 10 14 30 21 73 26 39 4 73 15 99 32 22 14 53 26 69 27 20 1 33 8 38 21 4
11 8 15 8 9 1 -17 33 -27 41 -13 4 6 24 11 44 11 20 0 43 6 50 14 12 11 15 11
20 -2 4 -12 13 -14 29 -9 12 4 32 6 44 6 11 0 24 6 27 14 3 8 1 15 -5 15 -6 0
-7 5 -4 10 4 6 11 8 16 5 5 -3 6 1 3 9 -4 11 0 13 17 9 13 -4 18 -8 11 -11
-13 -4 -17 -69 -5 -97 5 -15 8 -14 19 6 7 13 13 18 14 12 0 -7 9 -13 19 -13
11 0 33 -11 49 -25 18 -15 32 -21 34 -14 6 17 148 21 173 5 26 -17 105 -25
105 -11 0 7 3 7 8 0 4 -5 21 -18 39 -28 31 -17 32 -17 43 3 10 19 13 18 55
-26 36 -37 46 -43 51 -30 7 17 25 12 23 -7 -3 -24 1 -37 11 -34 6 1 16 -9 23
-22 6 -13 17 -24 22 -24 6 0 15 -7 22 -16 11 -14 13 -12 13 14 1 17 4 24 7 17
2 -6 9 -10 14 -7 5 4 6 -1 3 -9 -7 -19 12 -22 20 -3 3 6 3 -1 0 -18 -5 -29 -5
-29 11 -10 29 35 44 71 36 84 -6 8 -10 1 -15 -20 -5 -26 -9 -30 -19 -20 -9 9
-9 14 3 21 10 7 11 10 3 10 -7 0 -13 7 -13 16 0 8 4 13 9 10 4 -3 16 1 27 8
17 13 16 13 -9 11 -18 -2 -27 1 -27 11 0 21 4 29 13 27 13 -5 7 11 -13 37
l-20 25 0 -27 c0 -29 -13 -37 -27 -15 -9 14 -12 28 -15 74 -2 20 -8 33 -17 33
-9 0 -12 -10 -9 -34 2 -23 0 -32 -8 -29 -7 3 -11 19 -8 42 2 28 -2 43 -15 55
-14 13 -21 14 -27 5 -4 -8 -3 -10 4 -5 7 4 12 3 12 -3 0 -26 -21 -18 -36 14
-17 36 -34 46 -34 20 0 -8 7 -15 15 -15 12 0 13 -3 4 -13 -10 -10 -17 -9 -35
8 -12 11 -19 22 -14 25 5 3 3 13 -4 22 -7 10 -16 15 -19 11 -8 -7 -57 38 -57
54 0 6 -9 9 -20 6 -11 -3 -20 -9 -20 -14 0 -5 -5 -9 -11 -9 -5 0 -7 6 -4 13 4
6 0 4 -8 -5 -18 -23 -77 -25 -77 -3 0 19 -7 19 -28 -2 -16 -16 -17 -15 -22 13
-4 19 -8 25 -13 16 -13 -19 -25 -5 -32 38 -6 37 -8 39 -23 23 -16 -15 -17 -15
-20 0 -2 9 -7 17 -12 17 -5 0 -7 -6 -4 -14 3 -9 -1 -13 -12 -13 -11 1 -20 -8
-25 -23 -4 -14 -8 -18 -8 -10 -1 12 -3 12 -11 -2 -11 -18 -49 -16 -60 3 -4 6
-11 11 -16 12 -5 1 -8 5 -7 9 2 5 0 7 -5 7 -22 -4 -30 3 -25 21 4 15 2 19 -10
14 -10 -3 -18 2 -22 15 -5 17 -10 19 -25 11 -22 -12 -33 -13 -27 -2 3 4 -6 15
-18 25 -15 10 -26 13 -30 7 -11 -18 -27 -11 -22 10 3 13 1 18 -6 13 -6 -4 -8
0 -4 11 4 10 2 16 -6 15 -22 -3 -37 1 -36 9 6 34 -4 38 -40 18z"/>
<path d="M4918 7828 c-10 -10 -25 -18 -33 -18 -17 0 -21 -35 -5 -45 6 -3 10 3
10 14 0 12 6 21 14 21 8 0 16 6 19 13 3 9 8 9 18 -2 8 -8 9 -11 3 -8 -18 10
-25 -20 -8 -34 8 -7 13 -18 10 -26 -3 -8 -1 -11 4 -8 6 4 10 -9 10 -30 0 -19
5 -44 12 -54 9 -15 8 -22 -5 -36 -21 -21 -21 -25 1 -41 15 -11 10 -13 -34 -12
-29 0 -56 -2 -61 -5 -17 -11 -172 11 -195 28 -13 8 -30 15 -39 15 -9 0 -24 10
-33 23 -14 18 -26 22 -59 20 -81 -4 -127 -14 -127 -28 0 -7 -3 -21 -7 -31 -4
-12 -3 -15 5 -10 14 9 16 -16 3 -29 -6 -6 20 -10 72 -10 110 0 195 -20 230
-53 15 -14 27 -31 27 -38 0 -24 27 -36 52 -23 13 7 38 12 55 10 23 -1 36 4 45
19 7 11 18 20 24 20 6 0 17 7 24 15 7 8 22 15 33 15 11 0 28 7 37 15 9 8 27
16 41 17 32 4 52 24 44 47 -3 10 1 24 10 31 8 7 15 21 15 31 0 18 -20 70 -30
79 -4 3 -16 25 -29 50 -12 25 -21 35 -19 23 2 -12 -1 -21 -7 -20 -5 1 -10 10
-9 20 0 9 -6 17 -14 17 -8 0 -21 -8 -29 -17 -8 -10 -12 -12 -8 -5 3 6 -1 19
-9 28 -9 9 -14 19 -12 23 10 16 -28 7 -46 -11z"/>
<path d="M1804 7349 c-12 -4 -24 -15 -28 -24 -3 -9 -12 -15 -20 -12 -9 4 -15
-4 -18 -24 -3 -18 0 -29 7 -29 17 0 36 -40 33 -70 -2 -25 26 -130 43 -162 5
-10 9 -24 9 -32 0 -8 6 -16 14 -19 7 -3 16 -18 19 -34 4 -15 20 -43 37 -62 16
-18 30 -44 30 -58 0 -16 8 -27 24 -33 13 -5 31 -23 40 -40 14 -29 14 -31 0
-26 -9 3 17 -27 58 -67 97 -96 145 -152 154 -180 8 -28 56 -97 67 -97 14 0 36
-27 29 -35 -4 -5 -2 -5 4 -2 15 9 74 -60 74 -85 0 -11 4 -17 9 -13 10 6 81
-80 81 -98 0 -6 7 -2 15 9 13 18 14 16 15 -24 0 -38 2 -43 19 -37 15 5 24 -1
36 -25 12 -24 22 -31 36 -27 16 4 21 -1 26 -23 3 -17 24 -46 49 -69 37 -34 44
-45 39 -68 -3 -15 -2 -22 1 -15 3 6 12 12 20 12 8 0 14 8 15 18 0 14 2 14 8
-3 5 -11 6 -22 2 -25 -11 -9 -6 -35 12 -54 17 -20 21 -30 18 -52 -1 -7 4 -12
11 -11 7 0 22 -1 33 -2 16 -1 17 -3 6 -10 -11 -7 -10 -15 9 -45 12 -21 33 -44
46 -53 14 -9 24 -25 24 -39 0 -15 7 -27 18 -30 9 -4 31 -12 49 -20 17 -8 36
-14 42 -14 6 0 14 -13 17 -30 6 -26 9 -29 38 -24 23 4 27 3 16 -5 -12 -9 -12
-11 2 -16 10 -4 22 -3 29 1 7 4 9 3 6 -3 -4 -6 3 -13 16 -17 32 -8 39 -7 32 4
-3 6 -1 10 4 10 6 0 11 -7 11 -15 0 -9 9 -15 25 -15 14 0 25 -5 25 -11 0 -6 6
-9 13 -6 18 7 137 -12 147 -24 3 -4 16 -10 29 -14 18 -5 22 -4 16 6 -6 9 -2
11 13 7 12 -4 24 -2 27 3 3 5 19 7 35 5 17 -2 30 1 30 5 0 5 5 9 11 9 5 0 7
-4 4 -10 -12 -20 13 -10 37 15 14 14 41 30 59 36 19 7 44 23 57 37 12 14 25
22 29 19 3 -4 13 1 22 11 9 10 31 24 49 31 17 8 32 19 32 25 0 6 8 13 18 14
34 4 50 8 63 18 14 9 53 28 114 54 17 8 46 15 65 16 19 2 36 8 38 14 2 5 12
10 22 10 10 0 22 5 25 10 3 6 17 10 30 10 13 0 26 4 29 9 3 5 31 12 61 16 30
3 55 11 55 16 0 15 63 49 91 49 29 0 49 17 49 42 0 24 33 41 49 25 10 -9 15
-8 25 6 7 9 17 17 22 17 5 0 27 12 48 26 32 22 37 30 31 51 -5 23 -4 25 19 21
15 -3 26 -1 26 3 0 5 7 9 15 9 8 0 15 5 15 11 0 18 60 89 76 89 8 0 13 4 12 9
-2 5 9 20 25 34 15 14 27 24 27 21 0 -3 9 0 20 6 11 6 20 17 20 25 0 8 4 15 9
15 5 0 34 25 65 55 30 30 60 55 66 55 5 0 10 11 10 23 0 13 9 32 19 41 16 14
17 21 8 31 -7 7 -15 11 -18 9 -4 -2 -9 5 -12 16 -7 29 -32 34 -61 13 -34 -24
-32 -33 4 -33 28 0 38 -9 24 -23 -8 -7 -57 11 -65 25 -10 15 -52 -10 -45 -28
3 -8 -1 -14 -9 -14 -8 0 -15 -4 -15 -9 0 -5 -9 -11 -20 -14 -11 -3 -20 -12
-20 -21 0 -9 -3 -16 -7 -17 -28 -3 -45 -9 -59 -24 -9 -9 -27 -23 -40 -32 -13
-8 -21 -19 -18 -24 3 -5 -2 -9 -10 -9 -9 0 -16 -7 -16 -15 0 -8 -9 -15 -20
-15 -11 0 -20 -7 -20 -15 0 -8 -9 -15 -20 -15 -11 0 -20 -6 -20 -13 0 -8 -7
-14 -15 -15 -8 -1 -22 -3 -30 -4 -8 -1 -15 -7 -15 -14 0 -13 -17 -13 -36 -1
-7 4 -17 0 -24 -8 -6 -7 -18 -11 -26 -8 -8 3 -14 1 -14 -4 0 -5 -35 -10 -77
-12 -43 -1 -85 -3 -93 -3 -8 0 -35 2 -59 5 -24 4 -52 2 -62 -3 -12 -7 -22 -6
-32 5 -8 8 -17 11 -21 8 -3 -4 -6 -1 -6 5 0 7 -9 12 -20 12 -11 0 -20 4 -20 9
0 5 -12 9 -26 9 -15 0 -31 6 -35 14 -5 10 -18 14 -34 11 -17 -4 -27 0 -31 11
-3 8 -22 18 -42 22 -21 4 -40 11 -43 16 -4 6 -15 4 -28 -4 -18 -11 -26 -11
-51 4 -22 13 -30 14 -30 4 0 -17 -60 -8 -67 11 -4 10 -9 11 -19 2 -8 -6 -21
-8 -30 -5 -12 4 -15 2 -11 -9 8 -20 -8 -28 -25 -13 -7 7 -20 14 -28 16 -8 2
-17 7 -20 11 -6 9 -8 9 -113 13 -42 2 -77 -1 -77 -5 0 -5 -4 -6 -8 -3 -4 2
-37 7 -74 9 -36 3 -76 11 -88 17 -15 8 -20 8 -16 1 4 -6 2 -11 -3 -11 -6 0
-11 5 -11 11 0 7 -9 9 -22 6 -14 -4 -29 0 -41 10 -15 14 -22 15 -38 5 -16 -10
-19 -10 -19 3 0 9 -10 19 -22 24 -50 20 -63 25 -73 26 -36 5 -92 19 -100 24
-9 5 -45 10 -87 12 -12 0 -18 8 -18 24 0 26 -16 41 -42 37 -11 -2 -18 7 -23
28 -4 20 -13 30 -25 30 -17 0 -71 77 -76 108 -2 8 -10 22 -18 31 -9 10 -16 23
-16 30 0 7 -9 26 -21 42 -11 16 -21 38 -22 49 -1 11 -7 20 -14 20 -7 0 -13 10
-13 21 0 17 -3 19 -14 10 -10 -8 -19 -5 -39 13 -15 14 -24 31 -21 39 3 10 -5
16 -26 21 -21 4 -29 10 -24 18 5 8 2 9 -10 5 -13 -5 -27 3 -50 28 -18 19 -41
35 -51 35 -10 0 -16 3 -12 6 7 7 -17 34 -31 34 -5 0 -15 12 -23 28 -13 25 -98
112 -109 112 -3 0 -6 12 -5 28 0 17 -5 27 -15 27 -8 0 -18 8 -22 18 -4 9 -15
20 -25 24 -10 4 -28 19 -40 34 -20 23 -47 34 -100 41 -7 1 -11 6 -10 11 3 14
-45 25 -69 16z"/>
<path d="M3338 7190 c19 -8 21 -12 11 -23 -10 -10 -18 -11 -36 -3 -12 6 -23
15 -23 19 0 5 -5 5 -10 2 -6 -4 -8 -11 -5 -16 4 -5 -3 -9 -13 -9 -15 0 -20 -6
-18 -24 0 -15 5 -21 11 -16 6 5 11 -1 11 -17 2 -21 -1 -24 -23 -19 -20 6 -23
4 -16 -11 15 -32 3 -80 -17 -68 -5 3 -12 -6 -16 -21 -4 -16 -9 -22 -14 -14 -5
8 -13 4 -26 -12 -21 -26 -54 -33 -54 -11 0 16 1 16 -39 2 -17 -6 -31 -15 -31
-21 0 -5 -4 -6 -10 -3 -5 3 -21 -5 -36 -18 l-25 -24 26 -31 c15 -18 24 -32 20
-32 -4 0 -2 -7 5 -15 10 -12 15 -13 21 -4 4 8 9 5 13 -9 5 -15 19 -23 52 -28
24 -3 44 -10 44 -15 0 -5 8 -9 18 -9 10 0 26 -6 37 -14 11 -7 23 -14 28 -15 4
0 8 -1 10 -2 1 0 10 -2 20 -4 10 -2 26 -6 35 -10 46 -18 235 -23 256 -6 6 5
49 12 96 15 47 3 112 10 145 15 63 9 80 9 133 -3 21 -5 32 -4 32 4 0 6 5 8 12
4 7 -4 36 -9 65 -10 41 -2 56 2 66 15 7 11 23 17 40 17 16 -1 27 4 27 11 0 7
7 13 15 13 16 0 17 1 19 45 2 29 -27 64 -47 57 -10 -3 -37 23 -37 35 0 5 -10
10 -22 10 -76 5 -153 15 -158 21 -3 4 -27 8 -55 9 -27 2 -67 4 -88 5 -20 2
-37 0 -37 -4 0 -5 -15 -7 -34 -5 -19 1 -32 5 -29 10 2 4 -9 6 -25 5 -17 -1
-37 3 -45 10 -8 7 -21 10 -30 6 -8 -3 -18 -1 -22 5 -3 7 0 8 10 5 11 -5 14 -1
12 12 -4 30 -17 44 -37 44 -19 0 -36 17 -27 26 3 3 15 1 26 -6 12 -6 21 -7 21
-1 0 11 -56 32 -64 24 -3 -4 -6 3 -6 15 0 15 -5 20 -15 16 -8 -4 -15 -1 -15 5
0 15 23 14 38 -1 9 -9 12 -9 12 0 0 13 -40 37 -57 34 -6 -1 -18 7 -26 18 -10
15 -29 22 -68 26 -42 3 -49 2 -31 -6z"/>
<path d="M1433 5709 c-6 -6 -9 -18 -6 -25 3 -8 0 -14 -7 -14 -6 0 -8 -4 -5
-10 3 -5 2 -10 -4 -10 -5 0 -8 -8 -6 -17 1 -10 -5 -26 -14 -37 -9 -10 -15 -20
-13 -22 5 -9 2 -57 -4 -51 -4 3 -13 0 -21 -8 -8 -8 -23 -15 -34 -15 -11 0 -18
-4 -14 -9 3 -5 1 -12 -5 -16 -5 -3 -12 7 -16 22 -10 45 -12 50 -13 21 -1 -21
-6 -28 -20 -28 -11 0 -21 -5 -23 -11 -7 -22 -36 20 -43 63 l-7 42 -14 -39 c-7
-21 -11 -41 -10 -44 2 -3 -2 -12 -10 -19 -9 -8 -14 -9 -14 -2 0 8 -6 8 -20 0
-11 -6 -18 -15 -15 -21 4 -5 10 -7 15 -4 4 3 11 -2 14 -11 3 -9 2 -12 -5 -9
-5 4 -17 1 -25 -6 -21 -17 -43 4 -25 24 9 12 8 16 -3 20 -19 8 -24 0 -22 -38
1 -28 -1 -30 -26 -27 -23 4 -28 1 -28 -17 0 -15 -6 -21 -21 -21 -11 0 -18 4
-15 9 8 12 -20 22 -39 15 -18 -7 -28 -36 -19 -58 3 -9 1 -16 -5 -16 -6 0 -11
5 -11 11 0 6 -7 9 -15 5 -21 -8 -65 14 -65 33 0 11 3 10 14 -5 15 -19 15 -19
11 1 -2 11 -4 26 -4 33 -1 10 -5 10 -21 0 -17 -11 -22 -10 -30 1 -7 12 -11 12
-24 2 -20 -17 -41 -4 -25 15 10 12 9 13 -4 8 -9 -3 -19 -15 -23 -26 -5 -16 -8
-18 -15 -7 -7 12 -9 12 -9 0 0 -9 -9 -12 -30 -9 -25 4 -30 2 -24 -11 14 -35
17 -54 7 -48 -7 5 -9 0 -6 -11 3 -12 -1 -19 -11 -19 -9 0 -16 7 -16 16 0 14
-2 14 -10 1 -5 -8 -10 -10 -10 -5 -1 6 -5 0 -10 -12 -5 -13 -16 -23 -25 -23
-9 0 -15 -9 -14 -22 0 -22 1 -22 9 -3 5 11 9 15 9 8 2 -20 -11 -43 -20 -37 -5
3 -9 -2 -9 -10 0 -9 -4 -15 -8 -13 -4 1 -20 -10 -35 -25 -16 -16 -32 -28 -38
-28 -6 0 -7 -5 -3 -12 4 -6 -1 -17 -11 -25 -11 -7 -13 -13 -7 -13 7 0 12 -4
12 -8 0 -5 -10 -8 -22 -8 -14 1 -27 -8 -35 -24 -7 -14 -19 -24 -26 -22 -8 1
-20 -5 -27 -13 -7 -8 -9 -15 -6 -15 4 0 1 -6 -6 -14 -7 -7 -17 -12 -23 -10
-17 6 -38 -13 -40 -37 -4 -39 -5 -40 -15 -34 -5 3 -10 1 -10 -4 0 -6 -4 -11
-10 -11 -5 0 -7 7 -4 15 4 8 1 15 -6 15 -7 0 -10 7 -6 15 7 18 -5 20 -23 3
-10 -11 -10 -7 0 17 17 40 33 57 26 27 -4 -19 -3 -21 9 -11 8 6 14 18 14 25 0
8 5 14 10 14 6 0 10 4 10 9 0 6 15 27 34 47 19 21 33 41 30 45 -2 4 6 9 19 13
16 4 23 13 25 33 1 24 0 26 -11 12 -11 -14 -15 -13 -40 12 -19 20 -23 29 -13
29 28 0 45 -12 40 -28 -5 -14 -4 -14 6 1 6 9 15 15 20 12 5 -3 11 -1 15 5 4 6
11 8 16 5 5 -4 9 -1 9 4 0 15 -27 14 -33 -1 -4 -10 -6 -10 -6 0 -1 6 -8 12
-17 12 -8 0 -12 5 -9 11 4 6 13 8 21 5 11 -4 13 1 8 22 -4 18 -3 23 4 14 7
-11 10 -10 16 3 9 24 7 32 -4 15 -8 -13 -10 -12 -10 3 0 21 19 22 27 1 4 -12
8 -13 14 -3 11 18 2 29 -23 29 -11 0 -22 -8 -25 -20 -3 -11 -12 -20 -20 -20
-10 0 -13 -6 -9 -16 6 -14 4 -15 -10 -4 -13 11 -17 11 -24 1 -4 -8 -13 -11
-19 -7 -7 5 -8 1 -4 -10 5 -14 3 -15 -15 -5 -29 16 -31 14 -26 -16 l4 -28 -15
25 -15 25 -6 -23 c-4 -14 -12 -21 -20 -18 -8 3 -14 1 -14 -4 0 -6 -7 -10 -15
-10 -8 0 -15 -4 -15 -10 0 -5 5 -10 11 -10 5 0 7 -5 4 -10 -4 -6 -11 -8 -16
-5 -5 4 -9 -2 -9 -12 0 -15 -2 -16 -10 -3 -8 12 -10 12 -16 -3 -5 -13 -10 -15
-19 -7 -10 8 -15 6 -20 -9 -3 -11 -9 -20 -13 -20 -31 5 -33 -3 -30 -108 3
-113 7 -122 50 -101 11 5 18 3 20 -7 2 -13 10 -11 40 10 33 22 68 33 68 20 0
-2 -5 -15 -11 -28 -9 -19 -19 -24 -52 -24 -23 -1 -58 -5 -77 -10 l-35 -9 -3
-2422 -2 -2422 3600 0 3600 0 0 2074 0 2074 -44 6 c-26 4 -55 17 -71 31 -14
14 -34 25 -45 25 -10 0 -38 20 -62 44 -64 65 -114 106 -135 111 -10 2 -38 11
-62 20 -50 18 -164 28 -155 14 3 -5 -6 -5 -20 1 -14 5 -26 7 -26 4 0 -2 -9 0
-21 7 -12 6 -37 13 -57 15 -20 3 -39 8 -42 12 -3 4 -14 9 -24 10 -17 3 -18 1
-8 -11 15 -18 113 -67 134 -67 8 0 24 -11 34 -25 10 -14 28 -24 39 -24 17 1
17 2 3 6 -10 2 -18 9 -18 13 0 6 10 6 24 0 17 -6 26 -5 28 2 2 6 16 11 31 11
15 0 27 3 27 6 0 4 15 5 34 3 39 -5 110 -58 102 -78 -3 -7 4 -20 14 -27 11 -8
18 -16 15 -19 -3 -3 11 -21 30 -41 20 -21 32 -37 28 -37 -4 0 -1 -5 7 -10 8
-5 25 -7 37 -3 13 3 23 1 23 -5 0 -6 8 -13 18 -17 24 -8 66 -44 59 -51 -3 -4
-20 4 -36 16 -17 11 -36 18 -41 15 -6 -4 -10 -3 -9 2 4 20 -2 34 -12 28 -6 -4
-8 -14 -5 -22 3 -8 1 -11 -4 -8 -5 3 -20 8 -32 10 -13 3 -28 12 -35 20 -8 11
-13 13 -18 5 -4 -6 -13 -9 -19 -7 -15 6 -18 -9 -19 -85 -1 -38 -5 -59 -14 -62
-7 -3 -13 -2 -13 2 0 4 -9 13 -20 20 -19 11 -20 10 -18 -10 2 -13 7 -28 11
-35 9 -15 -2 -45 -15 -37 -6 4 -5 10 3 15 10 6 4 9 -18 9 -20 0 -41 8 -53 20
-11 11 -20 16 -20 12 0 -5 3 -12 6 -15 4 -4 7 -23 8 -42 1 -26 -7 -44 -27 -66
-15 -17 -25 -35 -21 -40 3 -5 -2 -12 -10 -15 -12 -5 -13 -10 -5 -25 7 -15 6
-19 -5 -19 -9 0 -13 6 -10 14 3 8 -9 25 -30 41 -20 15 -36 34 -36 42 0 12 3
12 16 -1 8 -9 17 -16 18 -16 8 0 3 51 -5 56 -5 3 -9 11 -9 17 0 7 4 6 11 -3 8
-12 9 -10 4 8 -5 18 -2 22 17 22 l23 1 -23 18 c-15 13 -18 21 -10 24 10 4 11
7 1 18 -7 7 -13 20 -13 29 0 18 -29 49 -45 49 -5 0 -11 5 -14 12 -2 7 2 9 10
5 8 -4 5 0 -6 9 -11 9 -19 21 -17 26 1 6 -1 8 -6 5 -5 -3 -22 8 -37 24 -15 16
-31 27 -35 25 -4 -2 -23 11 -43 29 -20 18 -38 32 -40 30 -1 -2 -3 5 -3 16 0
15 3 17 16 7 13 -11 13 -10 1 6 -7 9 -21 17 -29 17 -13 0 -12 3 3 14 18 13 18
15 -8 50 -16 20 -23 36 -18 36 6 0 11 -6 11 -12 0 -9 3 -8 9 2 11 16 4 33 -9
25 -5 -3 -11 -1 -15 5 -3 5 0 10 7 10 8 1 5 7 -7 17 -20 15 -20 15 2 10 22 -5
22 -4 5 18 -9 13 -21 20 -26 17 -5 -3 -6 0 -2 6 4 7 2 20 -3 29 -8 14 -10 15
-11 3 0 -8 -9 -1 -19 16 -19 31 -46 41 -55 19 -2 -6 2 -33 9 -61 10 -40 10
-54 -1 -76 -15 -29 -9 -62 10 -51 6 4 5 -1 -2 -10 -8 -9 -11 -22 -7 -29 4 -7
-3 -2 -14 11 -13 14 -21 18 -21 10 0 -11 -2 -11 -10 1 -16 24 -11 2 6 -33 11
-21 12 -28 3 -19 -21 19 -31 14 -27 -15 2 -18 -2 -27 -9 -26 -9 2 -10 -4 -3
-23 6 -14 6 -23 1 -20 -5 4 -11 0 -14 -6 -4 -10 -7 -11 -18 0 -7 6 -24 12 -39
12 -30 0 -58 16 -47 27 5 4 12 2 16 -6 6 -10 10 -9 15 4 9 24 7 32 -4 15 -8
-12 -10 -12 -10 -1 0 8 8 20 18 28 9 8 12 12 5 9 -7 -4 -13 3 -15 16 -2 13 -9
22 -17 20 -9 -2 -11 3 -7 13 7 19 -41 126 -56 122 -6 -1 -13 5 -15 13 -4 13
-3 13 6 0 7 -11 10 -6 9 18 -1 18 -5 35 -9 38 -5 3 -6 -2 -3 -10 9 -25 -2 -19
-21 11 -16 24 -16 26 -1 20 10 -4 15 -3 11 3 -3 6 -13 10 -21 10 -8 0 -14 5
-14 10 0 6 -4 10 -10 10 -12 0 0 -193 15 -240 3 -11 2 -20 -3 -20 -5 0 -7 -50
-5 -112 5 -152 5 -142 -1 -238 -3 -47 -9 -107 -14 -133 -6 -27 -7 -58 -4 -69
4 -16 2 -19 -8 -13 -8 5 -11 4 -6 -3 3 -6 4 -29 0 -51 -7 -43 -26 -53 -43 -23
-6 9 -11 13 -11 7 0 -5 -5 -3 -10 5 -8 12 -10 12 -11 -5 0 -15 -3 -12 -9 8 -5
17 -5 38 1 50 9 20 9 19 6 -5 -3 -16 0 -28 4 -28 12 0 11 47 -1 55 -19 12 -11
34 11 30 13 -3 19 0 16 8 -3 7 -9 11 -15 10 -9 -2 -10 32 -1 62 2 6 -2 19 -8
30 -6 12 -7 28 -2 40 4 11 8 14 8 6 1 -8 4 -12 7 -8 3 3 2 12 -2 19 -14 21
-14 69 0 61 6 -4 3 5 -7 20 -15 24 -16 27 -2 27 9 0 13 5 10 10 -3 6 -2 10 4
10 6 0 8 7 4 16 -4 12 -8 13 -13 3 -5 -7 -7 -2 -7 14 1 14 5 23 10 20 11 -6 9
5 -5 28 -10 17 -10 23 -1 26 8 3 9 12 3 29 -6 15 -6 24 0 24 6 0 6 10 0 26
-12 31 -12 37 -2 30 4 -2 7 17 7 44 0 26 -3 46 -6 44 -4 -2 -9 3 -13 11 -3 8
-1 15 3 15 12 0 12 68 0 76 -5 3 -9 11 -9 17 0 7 4 6 10 -3 13 -20 13 -4 0 21
-8 13 -7 19 0 19 7 0 7 7 -2 23 -6 12 -13 38 -15 57 -6 73 -12 147 -17 212 -7
102 -16 148 -31 148 -10 0 -11 -9 -5 -37 5 -21 11 -74 14 -118 3 -44 7 -91 10
-105 3 -14 8 -55 11 -91 3 -37 8 -76 10 -88 4 -23 6 -103 3 -133 -1 -10 -6
-18 -11 -18 -6 0 -6 -5 0 -12 5 -7 8 -56 5 -108 -2 -52 -4 -110 -4 -127 -1
-18 -6 -33 -11 -33 -6 0 -6 -5 0 -12 5 -7 8 -58 6 -113 -5 -189 -7 -204 -28
-222 -14 -14 -16 -14 -7 -2 10 14 10 18 -3 22 -8 4 -14 3 -13 -1 3 -10 -20
-72 -27 -72 -3 0 -4 4 0 10 6 10 -48 42 -66 38 -6 -2 -14 3 -17 11 -3 10 0 11
9 5 12 -7 12 -5 0 9 -15 19 -36 23 -25 5 5 -7 3 -8 -5 -4 -7 5 -10 14 -7 22 5
12 2 12 -15 3 -25 -13 -43 0 -37 27 3 17 4 17 21 0 15 -15 17 -15 17 -2 0 9
-7 17 -15 17 -8 1 -19 3 -25 4 -5 1 -20 3 -32 4 -22 2 -22 2 -5 15 12 9 14 16
8 21 -8 4 -8 12 -1 24 5 10 6 31 2 47 -11 41 -8 106 6 129 11 19 11 19 12 -4
0 -40 11 -16 16 33 2 26 8 55 14 65 6 12 6 22 1 26 -6 3 -6 18 0 37 5 17 6 45
3 62 -3 17 -7 49 -9 71 -2 22 -7 66 -10 98 -3 31 -2 57 2 57 4 0 8 12 9 28 3
102 13 243 19 251 3 6 0 23 -8 38 -8 15 -12 34 -9 42 2 7 -1 17 -8 21 -6 4
-14 36 -17 71 -2 35 -9 67 -15 70 -6 4 -7 12 -4 18 4 6 4 16 0 22 -4 7 -9 29
-10 49 -3 30 -15 50 -58 94 -31 31 -59 56 -64 56 -5 0 -20 15 -32 34 -26 36
-85 65 -102 48 -9 -9 -1 -64 25 -170 2 -7 14 -21 28 -30 15 -10 23 -24 21 -34
-2 -12 3 -18 14 -18 14 0 15 -3 6 -12 -13 -13 -17 -32 -4 -25 4 3 13 -1 20 -9
10 -11 10 -14 0 -14 -8 0 -9 -3 -3 -8 34 -24 80 -114 90 -172 11 -66 8 -281
-6 -390 -6 -52 -13 -115 -15 -140 -2 -25 -7 -63 -13 -85 -5 -22 -12 -57 -15
-79 -4 -21 -8 -42 -11 -46 -3 -4 11 -25 30 -46 19 -22 35 -45 35 -52 0 -20
-48 16 -56 41 -6 19 -9 17 -21 -18 -8 -22 -17 -55 -19 -74 -3 -19 -10 -41 -16
-48 -6 -7 -8 -13 -4 -13 3 0 0 -15 -8 -33 -13 -33 -33 -163 -35 -240 -1 -10
-4 -16 -8 -14 -5 3 -9 -20 -10 -51 -1 -32 -3 -79 -5 -107 -1 -27 1 -62 5 -77
6 -23 4 -28 -10 -28 -15 0 -16 -2 -3 -10 13 -8 13 -10 -2 -10 -15 0 -16 -4 -8
-26 12 -31 13 -54 2 -38 -11 17 -42 13 -40 -5 2 -9 -2 -15 -9 -14 -8 2 -10 -4
-6 -14 5 -12 2 -15 -10 -10 -15 6 -16 3 -7 -13 7 -13 7 -20 1 -20 -6 0 -8 -7
-4 -15 3 -10 0 -15 -8 -13 -8 2 -13 -3 -11 -11 2 -8 -3 -11 -12 -8 -8 3 -17
-1 -20 -9 -4 -10 -1 -14 6 -11 14 4 37 -21 38 -40 0 -7 -7 -13 -15 -13 -17 0
-21 -36 -5 -43 6 -3 5 -4 -2 -3 -6 1 -20 -6 -31 -17 -10 -10 -22 -16 -25 -12
-4 3 0 10 7 14 7 5 10 14 6 21 -5 8 -11 5 -22 -9 -8 -12 -11 -26 -8 -31 9 -15
-2 -12 -19 6 -15 14 -16 13 -17 -8 -1 -23 -1 -23 -9 2 -6 19 -8 20 -9 6 -1
-11 -6 -16 -15 -13 -10 4 -13 1 -9 -9 3 -7 0 -14 -6 -14 -6 0 -11 -6 -11 -14
0 -7 -7 -19 -15 -26 -12 -10 -13 -16 -4 -26 9 -11 7 -14 -12 -15 -13 -1 -27
-1 -31 0 -5 0 -7 -5 -5 -12 1 -6 -4 -11 -10 -10 -7 2 -13 -3 -14 -10 0 -6 -4
-3 -9 8 -7 16 -9 17 -9 3 -1 -9 -6 -20 -13 -24 -7 -4 -8 -3 -4 4 4 7 2 12 -3
12 -6 0 -11 -7 -11 -15 0 -8 -6 -15 -14 -15 -8 0 -17 -7 -20 -16 -3 -8 -10
-12 -16 -9 -5 3 -10 -1 -10 -10 0 -12 -7 -15 -29 -12 -24 4 -28 2 -24 -11 4
-9 2 -13 -4 -9 -6 4 -14 1 -16 -5 -4 -10 -6 -10 -6 0 -1 6 -6 12 -12 12 -5 0
-8 -4 -5 -8 2 -4 1 -14 -5 -22 -7 -13 -9 -12 -9 3 0 9 -4 17 -10 17 -5 0 -10
-6 -10 -13 0 -8 -9 -24 -19 -36 -18 -21 -20 -21 -31 -4 -10 16 -11 16 -6 1 3
-10 1 -18 -4 -18 -5 0 -7 -8 -4 -17 5 -14 4 -15 -4 -4 -6 8 -8 20 -5 27 2 6
-1 15 -8 20 -8 5 -10 3 -5 -5 5 -8 0 -14 -13 -18 -12 -3 -21 -10 -21 -15 0 -6
-7 -8 -15 -4 -10 4 -15 -1 -15 -15 0 -15 -5 -19 -15 -15 -10 4 -15 1 -13 -9 2
-7 -1 -13 -7 -12 -5 1 -9 5 -8 8 1 4 -6 5 -16 2 -11 -3 -22 -17 -26 -31 -7
-24 -8 -25 -14 -8 -7 18 -8 18 -14 2 -4 -11 -13 -16 -22 -12 -8 3 -15 1 -15
-4 0 -6 -7 -10 -15 -10 -9 0 -29 -7 -45 -15 -22 -11 -30 -12 -33 -2 -4 9 -6 9
-6 -1 -1 -7 -5 -10 -11 -7 -5 3 -10 3 -10 -2 0 -4 -11 -8 -25 -8 -14 0 -25 3
-25 6 0 3 -8 6 -17 6 -63 -1 -84 4 -77 16 6 9 5 9 -7 0 -15 -12 -48 -11 -69 2
-6 3 -10 1 -10 -5 0 -7 -6 -10 -14 -7 -8 3 -20 -1 -26 -8 -7 -8 -16 -12 -21
-9 -5 3 -9 1 -9 -5 0 -6 -12 -8 -29 -5 -23 5 -30 2 -35 -14 -5 -14 -13 -18
-26 -15 -13 3 -20 0 -20 -8 0 -11 -2 -11 -9 0 -7 12 -13 12 -24 3 -7 -7 -16
-10 -19 -7 -5 5 -113 17 -158 17 -14 0 -43 5 -65 10 -22 6 -54 10 -72 10 -18
0 -33 5 -33 12 0 7 -3 6 -9 -2 -7 -11 -11 -11 -23 1 -10 10 -19 12 -31 5 -12
-6 -17 -5 -17 3 0 6 -8 9 -20 6 -12 -3 -20 0 -20 8 0 9 -13 12 -40 11 -22 0
-40 2 -40 6 0 4 -9 10 -20 13 -11 4 -18 11 -15 16 3 5 -1 6 -9 3 -9 -4 -16 -1
-16 6 0 7 -7 10 -15 6 -9 -3 -15 0 -15 9 0 18 -12 19 -28 3 -9 -9 -12 -7 -12
9 0 13 -8 23 -23 27 -25 6 -157 130 -157 147 0 5 -4 8 -9 5 -5 -3 -22 10 -38
29 -17 19 -35 35 -42 35 -6 0 -11 5 -11 10 0 6 -7 10 -15 10 -8 0 -14 3 -14 8
3 17 -1 35 -7 29 -5 -5 -64 45 -64 55 0 2 -31 37 -70 77 -38 40 -70 77 -70 82
0 5 -7 9 -16 9 -8 0 -12 5 -9 10 3 6 0 10 -8 10 -8 0 -21 10 -30 23 -8 13 -33
43 -56 67 -23 24 -41 48 -41 52 0 4 -4 8 -10 8 -10 0 -70 55 -70 65 0 9 -60
65 -69 65 -5 0 -12 11 -15 25 -4 14 -13 25 -21 25 -8 0 -15 6 -15 13 0 7 -9
23 -20 35 -11 12 -20 24 -20 27 1 9 -132 210 -141 213 -5 2 -9 10 -9 17 0 7
-3 15 -7 17 -14 5 -73 125 -66 131 3 4 1 7 -6 7 -7 0 -10 4 -6 9 3 6 -4 26
-15 46 -23 41 -25 49 -7 40 6 -4 5 -1 -4 7 -18 15 -14 38 7 38 10 0 5 9 -13
26 -22 21 -25 27 -13 35 10 6 11 12 5 17 -5 4 -11 18 -13 32 -2 20 -1 22 7 10
9 -12 11 -9 11 13 0 15 -4 27 -10 27 -5 0 -10 8 -10 18 0 10 -6 26 -13 37 -21
31 -29 57 -14 49 13 -9 -41 67 -56 77 -6 4 -7 14 -4 23 4 9 2 26 -3 38 -8 22
-9 21 -10 -7 l-2 -30 -10 30 c-5 17 -17 46 -26 65 -9 19 -15 38 -14 43 1 4 -5
7 -14 7 -8 0 -13 4 -9 9 3 5 0 13 -6 16 -5 4 -8 13 -5 21 3 8 1 14 -4 14 -6 0
-10 3 -9 8 2 16 -14 51 -22 47 -10 -7 -38 46 -32 61 2 6 -8 23 -22 38 -15 16
-25 37 -23 50 2 14 -2 20 -11 18 -9 -2 -12 4 -8 18 3 11 1 18 -3 15 -5 -3 -11
-1 -15 5 -3 5 -1 10 5 10 7 0 5 9 -4 22 -9 12 -16 29 -16 36 0 8 -11 40 -24
71 -29 68 -38 91 -41 111 -2 8 -7 36 -13 62 -5 26 -7 50 -4 53 3 3 1 5 -4 5
-5 0 -9 10 -10 23 0 12 -4 54 -8 92 -9 76 -9 161 0 213 7 34 4 38 -13 21z
m4586 -1493 c10 -7 12 -6 6 4 -5 9 -4 11 3 6 7 -4 12 -14 12 -22 0 -9 5 -12
11 -8 8 4 9 -1 4 -17 -7 -23 -7 -24 9 -4 13 17 15 17 16 3 0 -11 7 -15 23 -12
12 2 16 1 9 -2 -10 -5 -9 -9 5 -19 10 -7 15 -17 11 -21 -4 -4 -14 -2 -21 5
-10 8 -22 8 -38 2 -17 -7 -19 -10 -7 -10 21 -1 37 -29 32 -56 -7 -41 -7 -71 0
-92 5 -14 1 -28 -10 -41 -19 -23 -26 -79 -13 -104 7 -13 6 -18 -3 -19 -10 0
-10 -2 0 -6 6 -2 12 -18 12 -35 0 -21 -4 -29 -14 -25 -16 6 -19 -38 -5 -65 13
-24 4 -22 -23 5 -15 15 -22 32 -20 47 2 14 0 22 -4 17 -4 -4 -17 1 -28 10 -13
11 -16 12 -9 3 6 -8 13 -19 15 -25 1 -5 6 -9 10 -8 4 2 5 -4 1 -13 -5 -12 -8
-12 -20 6 -8 11 -14 28 -13 38 1 9 2 34 2 54 1 21 6 34 11 31 6 -3 7 -1 3 6
-13 20 -25 2 -21 -30 2 -17 1 -28 -3 -24 -10 10 -10 75 0 69 4 -3 8 0 8 7 0 9
3 9 14 0 18 -15 34 5 17 22 -8 8 -11 7 -11 -3 0 -13 -2 -13 -10 0 -13 20 -13
33 1 24 6 -3 3 8 -5 25 -10 19 -12 31 -6 31 6 0 8 5 5 11 -4 6 2 13 14 16 11
3 18 9 15 14 -3 5 -10 7 -15 4 -5 -4 -9 -1 -9 4 0 6 -5 11 -11 11 -5 0 -7 -4
-4 -10 3 -5 2 -10 -3 -10 -5 0 -9 11 -9 25 0 20 2 23 12 15 15 -12 30 3 21 19
-18 29 20 46 57 25 6 -4 3 2 -8 13 -11 11 -22 17 -25 14 -5 -6 -20 -7 -37 -1
-5 1 -11 2 -15 1 -5 0 -8 6 -8 14 0 16 20 16 32 0 14 -19 8 26 -8 57 -9 16
-11 27 -5 24 6 -4 11 -3 11 3 0 11 19 9 39 -3z m-569 -575 c0 -6 -4 -12 -8
-15 -12 -7 -14 -66 -2 -66 6 0 8 5 5 10 -3 6 -1 10 4 10 6 0 11 -7 11 -15 0
-14 -12 -20 -34 -16 -5 1 -6 -5 -3 -14 4 -8 2 -15 -3 -15 -5 0 -6 -7 -3 -17 4
-11 3 -14 -5 -9 -7 4 -12 1 -12 -7 0 -9 -13 -16 -35 -19 -24 -3 -35 0 -35 9 0
7 -3 13 -7 13 -10 0 -8 67 2 96 5 16 12 20 27 16 13 -3 19 -1 15 5 -9 15 29
23 44 9 9 -8 10 -8 5 2 -5 7 -1 12 9 12 9 0 13 5 10 10 -3 6 -1 10 4 10 6 0
11 -4 11 -9z"/>
<path d="M7015 4542 c-15 -11 -18 -61 -5 -77 6 -8 9 -19 5 -25 -3 -5 0 -10 8
-10 15 0 32 -44 22 -60 -3 -4 0 -10 6 -12 7 -2 7 -12 0 -31 -10 -25 -8 -27 13
-27 16 0 26 7 30 23 9 36 7 59 -5 51 -17 -10 -1 68 16 82 8 6 13 25 12 42 -2
26 -6 30 -27 28 -14 -1 -31 4 -38 11 -15 15 -23 16 -37 5z"/>
</g>
</svg>
